<svg xmlns="http://www.w3.org/2000/svg" viewBox="0 0 609.47 584.94"><title>icon</title><g id="Layer_2" data-name="Layer 2"><g id="Layer_1-2" data-name="Layer 1"><path d="M57,73.52c.8.52,1.39.93,2,1.29q49.23,28.44,98.45,56.86c5.92,3.41,12.42,5.24,19.06,6.5a126.87,126.87,0,0,0,39.57.8c23.89-3,46.31-10.7,67.92-21.06a379.29,379.29,0,0,0,33.17-18.44c17.51-10.65,35.14-21.08,52.73-31.6L480.77,1.59c.36-.22.73-.42,1.07-.65a4.71,4.71,0,0,1,5.59,0C492.66,4,498,7,503.21,10q42.09,24.3,84.16,48.62a44.32,44.32,0,0,1,22.1,39q-.24,37.88-.52,75.74c-.05,6.58-.21,13.17-.15,19.75,0,2.59-1,4.1-3.23,5.36q-41.48,23.86-82.89,47.83L435.9,296.38c-.72.42-1.43.85-2.16,1.24a3.74,3.74,0,0,1-4.24-.24,4,4,0,0,1-1.68-3.92q.71-5.58,1.42-11.15c1.1-8.43,2.28-16.84,3.25-25.27A6.12,6.12,0,0,1,435.9,252Q489,221.42,542,190.78c7.86-4.54,15.69-9.15,23.61-13.58a6.24,6.24,0,0,0,3.56-6c.34-18.16.82-36.32,1.24-54.48,0-.63-.07-1.26-.12-2.16-1,.49-1.69.83-2.38,1.23q-49.12,28.35-98.24,56.73c-6.14,3.55-11.07,8.52-15.62,13.88-9.59,11.31-16.47,24.19-21.83,37.94a212.37,212.37,0,0,0-12.1,48.6c-2.48,18.22-2.72,36.51-2.27,54.87.48,19.49.63,39,.93,58.48q1,65.61,2,131.22c0,.41,0,.83,0,1.25.23,2.28-.83,3.73-2.8,4.81-6.87,3.75-13.7,7.59-20.54,11.39L317.47,579.4A44.26,44.26,0,0,1,295,584.93a42.82,42.82,0,0,1-21.4-6q-41.38-24.25-82.78-48.5a5.65,5.65,0,0,1-3-5.51c.05-18.58,0-37.17,0-55.75q0-70.11,0-140.24a17.85,17.85,0,0,1,.07-2.74,4,4,0,0,1,6.25-2.85c.49.31.94.69,1.4,1,9.28,7.07,18.52,14.19,27.87,21.17a6.59,6.59,0,0,1,2.9,5.89q-.09,73.88-.05,147.74a19,19,0,0,1,0,2c-.27,2.67,1,4.33,3.22,5.66,6.17,3.63,12.25,7.43,18.36,11.16q14,8.53,27.94,17.06c.69.42,1.41.78,2.36,1.3.05-1.08.12-1.88.12-2.68q0-56.62,0-113.24c0-7.36-1.9-14.34-4.37-21.18-4.9-13.54-12.37-25.61-21.3-36.82-13.13-16.5-28.81-30.25-46-42.37a329.06,329.06,0,0,0-30.35-18.83Q139.07,280.65,102,260,52.83,232.66,3.7,205.32A6.35,6.35,0,0,1,0,199Q.12,144.1,0,89.23C0,80.4,1.67,72,6.23,64.33a43.33,43.33,0,0,1,16-15.85Q64,24.68,105.79.91a5.64,5.64,0,0,1,6.27.11q65.74,38,131.55,76l38.51,22.24a19.64,19.64,0,0,1,1.93,1.15,4,4,0,0,1-.38,6.83,16.72,16.72,0,0,1-1.83.82c-10.75,4.49-21.53,8.94-32.24,13.52a6.68,6.68,0,0,1-6.58-.47Q178.9,84,114.72,47c-.57-.34-1.17-.64-1.72-1a4.94,4.94,0,0,0-5.62,0c-7.65,4.23-15.35,8.38-23,12.57L59.79,71.9C58.92,72.38,58.07,72.89,57,73.52ZM38.47,109.15v3.26q0,31.36,0,62.74c0,.74,0,1.5.06,2.24a3.75,3.75,0,0,0,1.86,3.08c.63.4,1.29.76,2,1.13q66.38,37.4,132.77,74.8c15.24,8.59,30.59,17,45,26.86,20.43,13.95,39.59,29.39,56.5,47.52,11.52,12.36,21.72,25.69,29.47,40.78A105,105,0,0,1,318.23,421c-.25,36.74-.07,73.49-.07,110.23v3.25c1.11-.54,1.85-.86,2.54-1.26,18.69-10.6,37.36-21.24,56.09-31.76a6.16,6.16,0,0,0,3.57-6.17c-.25-22.08-.36-44.16-.51-66.24-.22-31.82-.34-63.65-.7-95.48-.27-23.6.48-47.13,4-70.52a300.58,300.58,0,0,1,11-48.15c5.14-15.83,11.74-31,21.13-44.81,8.48-12.5,18.78-23.12,32-30.75q16.42-9.51,32.89-19l66.21-38.22c.73-.43,1.43-.91,2.39-1.53-2.07-1.16-3.74-2.08-5.4-3-17.89-10.32-35.79-20.61-53.63-31a6.41,6.41,0,0,0-7.37,0Q415.72,86.13,349,125.51c-15.12,9-30.18,18-46.1,25.52-22.95,10.85-46.59,19.75-71.49,25-18.44,3.9-37,5.67-55.85,3.25a95.62,95.62,0,0,1-36-11.87Q90.34,139,41.09,110.58C40.39,110.18,39.67,109.8,38.47,109.15Z"/></g></g></svg>