<svg xmlns="http://www.w3.org/2000/svg" viewBox="0 0 375.16 374.44"><title>stars</title><g id="Layer_2" data-name="Layer 2"><g id="Layer_1-2" data-name="Layer 1"><path d="M188.9,0c6.94.42,13,3.83,16,11.16,7,17.09,13.68,34.3,20.44,51.49,5.53,14.08,11.19,28.13,16.41,42.34,4.53,12.35,14.13,15.33,26,16.11,27.2,1.79,54.37,4.18,81.55,6.37a81.75,81.75,0,0,1,9.9,1.15c8.15,1.67,13.09,6.82,15.22,14.77,2.26,8.48-.5,15.53-6.77,21.11-17.27,15.36-35,30.26-52,45.9C308.4,217,301,223.46,293.81,230.15c-6.32,5.9-8.55,12.67-6.51,21.15,6.62,27.62,13.05,55.28,19.54,82.93,1.29,5.5,2.59,11,3.7,16.55,1.69,8.5-1.83,15-8.59,19.72s-13.81,4.28-20.61,0q-41.16-25.86-82.23-51.85c-7.5-4.74-14.84-4.92-22.42-.07q-40.75,26.06-81.61,52c-8,5.08-15.14,5.22-21.85.33-7.31-5.34-9.5-12.73-7.51-21.2,4-17.27,8.94-34.36,12.55-51.72C81.28,283.49,88.4,271.84,99,262c6.93-6.43,15.62-10.07,23.9-14.23,20.32-10.2,40.88-19.93,61.18-30.17,6.67-3.37,13.38-6.61,20-10,5.77-2.89,8-7.58,6.44-12.5s-6.67-7.48-12.88-6.33q-51.7,9.63-103.4,19.32c-18.37,3.48-34.59-1.06-48.89-12.79C32.81,185,20.38,174.51,7.85,164.1c-7.08-5.88-9.52-13.87-6.71-22.3,2.75-8.24,9.3-12.84,18.4-13.48q39.8-2.8,79.55-5.87c6.77-.51,13.62.49,20.32-1.69a20,20,0,0,0,13.25-12.52c9.12-23.93,18.17-47.9,27.38-71.81,3.22-8.37,6.64-16.69,10.28-24.9C173.66,4,179.6,0,188.9,0Z"/></g></g></svg>
